<mxfile host="app.diagrams.net" agent="Mozilla/5.0 (Windows NT 10.0; Win64; x64) AppleWebKit/537.36 (KHTML, like Gecko) Chrome/133.0.0.0 Safari/537.36 Edg/133.0.0.0" version="26.0.15">
  <diagram name="Sayfa -1" id="Pdi8FQV0at2IfZZp-7_K">
    <mxGraphModel dx="1678" dy="928" grid="1" gridSize="10" guides="1" tooltips="1" connect="1" arrows="1" fold="1" page="1" pageScale="1" pageWidth="827" pageHeight="1169" math="0" shadow="0">
      <root>
        <mxCell id="0" />
        <mxCell id="1" parent="0" />
        <mxCell id="u1guoA3GMTl8jG1mosET-12" value="" style="edgeStyle=orthogonalEdgeStyle;rounded=0;orthogonalLoop=1;jettySize=auto;html=1;" edge="1" parent="1" source="u1guoA3GMTl8jG1mosET-1" target="u1guoA3GMTl8jG1mosET-11">
          <mxGeometry relative="1" as="geometry" />
        </mxCell>
        <mxCell id="u1guoA3GMTl8jG1mosET-1" value="Talep" style="rounded=0;whiteSpace=wrap;html=1;" vertex="1" parent="1">
          <mxGeometry x="340" y="180" width="120" height="60" as="geometry" />
        </mxCell>
        <mxCell id="u1guoA3GMTl8jG1mosET-18" value="" style="edgeStyle=orthogonalEdgeStyle;rounded=0;orthogonalLoop=1;jettySize=auto;html=1;" edge="1" parent="1" source="u1guoA3GMTl8jG1mosET-6" target="u1guoA3GMTl8jG1mosET-17">
          <mxGeometry relative="1" as="geometry" />
        </mxCell>
        <mxCell id="u1guoA3GMTl8jG1mosET-6" value="Teklif Alma" style="whiteSpace=wrap;html=1;rounded=0;" vertex="1" parent="1">
          <mxGeometry x="340" y="450" width="120" height="60" as="geometry" />
        </mxCell>
        <mxCell id="u1guoA3GMTl8jG1mosET-13" value="" style="edgeStyle=orthogonalEdgeStyle;rounded=0;orthogonalLoop=1;jettySize=auto;html=1;" edge="1" parent="1" source="u1guoA3GMTl8jG1mosET-11" target="u1guoA3GMTl8jG1mosET-6">
          <mxGeometry relative="1" as="geometry" />
        </mxCell>
        <mxCell id="u1guoA3GMTl8jG1mosET-14" value="Evet" style="edgeLabel;html=1;align=center;verticalAlign=middle;resizable=0;points=[];" vertex="1" connectable="0" parent="u1guoA3GMTl8jG1mosET-13">
          <mxGeometry x="-0.3667" y="3" relative="1" as="geometry">
            <mxPoint x="-3" as="offset" />
          </mxGeometry>
        </mxCell>
        <mxCell id="u1guoA3GMTl8jG1mosET-15" style="edgeStyle=orthogonalEdgeStyle;rounded=0;orthogonalLoop=1;jettySize=auto;html=1;entryX=0;entryY=0.75;entryDx=0;entryDy=0;" edge="1" parent="1" source="u1guoA3GMTl8jG1mosET-11" target="u1guoA3GMTl8jG1mosET-1">
          <mxGeometry relative="1" as="geometry">
            <Array as="points">
              <mxPoint x="270" y="350" />
              <mxPoint x="270" y="225" />
            </Array>
          </mxGeometry>
        </mxCell>
        <mxCell id="u1guoA3GMTl8jG1mosET-16" value="Hayır" style="edgeLabel;html=1;align=center;verticalAlign=middle;resizable=0;points=[];" vertex="1" connectable="0" parent="u1guoA3GMTl8jG1mosET-15">
          <mxGeometry x="-0.7404" relative="1" as="geometry">
            <mxPoint x="-3" as="offset" />
          </mxGeometry>
        </mxCell>
        <mxCell id="u1guoA3GMTl8jG1mosET-11" value="Onaylandı mı?" style="rhombus;whiteSpace=wrap;html=1;rounded=0;" vertex="1" parent="1">
          <mxGeometry x="360" y="310" width="80" height="80" as="geometry" />
        </mxCell>
        <mxCell id="u1guoA3GMTl8jG1mosET-20" value="" style="edgeStyle=orthogonalEdgeStyle;rounded=0;orthogonalLoop=1;jettySize=auto;html=1;" edge="1" parent="1" source="u1guoA3GMTl8jG1mosET-17" target="u1guoA3GMTl8jG1mosET-19">
          <mxGeometry relative="1" as="geometry" />
        </mxCell>
        <mxCell id="u1guoA3GMTl8jG1mosET-21" value="Evet" style="edgeLabel;html=1;align=center;verticalAlign=middle;resizable=0;points=[];" vertex="1" connectable="0" parent="u1guoA3GMTl8jG1mosET-20">
          <mxGeometry x="-0.363" y="-1" relative="1" as="geometry">
            <mxPoint as="offset" />
          </mxGeometry>
        </mxCell>
        <mxCell id="u1guoA3GMTl8jG1mosET-24" style="edgeStyle=orthogonalEdgeStyle;rounded=0;orthogonalLoop=1;jettySize=auto;html=1;entryX=0;entryY=0.5;entryDx=0;entryDy=0;" edge="1" parent="1" source="u1guoA3GMTl8jG1mosET-17" target="u1guoA3GMTl8jG1mosET-6">
          <mxGeometry relative="1" as="geometry">
            <Array as="points">
              <mxPoint x="270" y="600" />
              <mxPoint x="270" y="480" />
            </Array>
          </mxGeometry>
        </mxCell>
        <mxCell id="u1guoA3GMTl8jG1mosET-25" value="Hayır" style="edgeLabel;html=1;align=center;verticalAlign=middle;resizable=0;points=[];" vertex="1" connectable="0" parent="u1guoA3GMTl8jG1mosET-24">
          <mxGeometry x="-0.6804" y="2" relative="1" as="geometry">
            <mxPoint y="-2" as="offset" />
          </mxGeometry>
        </mxCell>
        <mxCell id="u1guoA3GMTl8jG1mosET-17" value="Onaylandı mı?" style="rhombus;whiteSpace=wrap;html=1;rounded=0;" vertex="1" parent="1">
          <mxGeometry x="360" y="560" width="80" height="80" as="geometry" />
        </mxCell>
        <mxCell id="u1guoA3GMTl8jG1mosET-27" value="" style="edgeStyle=orthogonalEdgeStyle;rounded=0;orthogonalLoop=1;jettySize=auto;html=1;" edge="1" parent="1" source="u1guoA3GMTl8jG1mosET-19" target="u1guoA3GMTl8jG1mosET-26">
          <mxGeometry relative="1" as="geometry" />
        </mxCell>
        <mxCell id="u1guoA3GMTl8jG1mosET-19" value="Sipariş" style="whiteSpace=wrap;html=1;rounded=0;" vertex="1" parent="1">
          <mxGeometry x="340" y="700" width="120" height="60" as="geometry" />
        </mxCell>
        <mxCell id="u1guoA3GMTl8jG1mosET-26" value="Ürün Kabul" style="whiteSpace=wrap;html=1;rounded=0;" vertex="1" parent="1">
          <mxGeometry x="340" y="830" width="120" height="60" as="geometry" />
        </mxCell>
        <mxCell id="u1guoA3GMTl8jG1mosET-28" value="Satın Alma" style="text;html=1;align=center;verticalAlign=middle;resizable=0;points=[];autosize=1;strokeColor=none;fillColor=none;fontSize=20;" vertex="1" parent="1">
          <mxGeometry x="340" y="110" width="120" height="40" as="geometry" />
        </mxCell>
      </root>
    </mxGraphModel>
  </diagram>
</mxfile>
